<svg width="872" height="112" viewBox="0 0 872 112" fill="none" xmlns="http://www.w3.org/2000/svg">
<path d="M39.0247 90.2855L46.3129 103H0.282351C0.0692462 84.5062 -0.229025 45.5409 0.282426 37.6297C0.921739 27.7406 2.8397 22.7319 8.72138 14.2556C14.6031 5.7793 28.9236 0 38.7691 0C48.6145 0 60.2499 4.75187 68.4332 14.384C74.8296 21.9129 76.8721 32.9634 77 37.6297V103H64.0859C64.2137 82.3658 64.0858 40.2753 64.0858 37.5012C64.0858 32.1072 62.0827 27.3554 59.7385 24.1446C58.332 22.2182 50.6603 13.0998 38.897 13.0998C27.1308 13.0998 21.783 19.0622 17.6717 24.1446C14.3472 28.2544 13.2391 34.5046 13.1965 37.2444V90.1571L39.0247 90.2855Z" fill="#8100E6"/>
<g filter="url(#filter0_d)">
<path d="M117.1 104C111.7 104 106.467 103.233 101.4 101.7C96.4 100.167 92.4333 98.1333 89.5 95.6L94 85.5C96.8667 87.7667 100.367 89.6333 104.5 91.1C108.7 92.5 112.9 93.2 117.1 93.2C122.3 93.2 126.167 92.3667 128.7 90.7C131.3 89.0333 132.6 86.8333 132.6 84.1C132.6 82.1 131.867 80.4667 130.4 79.2C129 77.8667 127.2 76.8333 125 76.1C122.8 75.3667 119.8 74.5333 116 73.6C110.667 72.3333 106.333 71.0667 103 69.8C99.7333 68.5333 96.9 66.5667 94.5 63.9C92.1667 61.1667 91 57.5 91 52.9C91 49.0333 92.0333 45.5333 94.1 42.4C96.2333 39.2 99.4 36.6667 103.6 34.8C107.867 32.9333 113.067 32 119.2 32C123.467 32 127.667 32.5333 131.8 33.6C135.933 34.6667 139.5 36.2 142.5 38.2L138.4 48.3C135.333 46.5 132.133 45.1333 128.8 44.2C125.467 43.2667 122.233 42.8 119.1 42.8C113.967 42.8 110.133 43.6667 107.6 45.4C105.133 47.1333 103.9 49.4333 103.9 52.3C103.9 54.3 104.6 55.9333 106 57.2C107.467 58.4667 109.3 59.4667 111.5 60.2C113.7 60.9333 116.7 61.7667 120.5 62.7C125.7 63.9 129.967 65.1667 133.3 66.5C136.633 67.7667 139.467 69.7333 141.8 72.4C144.2 75.0667 145.4 78.6667 145.4 83.2C145.4 87.0667 144.333 90.5667 142.2 93.7C140.133 96.8333 136.967 99.3333 132.7 101.2C128.433 103.067 123.233 104 117.1 104ZM220.491 33V103H207.491V73H171.291V103H158.291V33H171.291V61.9H207.491V33H220.491ZM259.748 43.9V92.1H272.648V103H233.948V92.1H246.848V43.9H233.948V33H272.648V43.9H259.748ZM348.323 33V103H335.323V73H299.123V103H286.123V33H299.123V61.9H335.323V33H348.323ZM388.78 104C383.38 104 378.146 103.233 373.08 101.7C368.08 100.167 364.113 98.1333 361.18 95.6L365.68 85.5C368.546 87.7667 372.046 89.6333 376.18 91.1C380.38 92.5 384.58 93.2 388.78 93.2C393.98 93.2 397.846 92.3667 400.38 90.7C402.98 89.0333 404.28 86.8333 404.28 84.1C404.28 82.1 403.546 80.4667 402.08 79.2C400.68 77.8667 398.88 76.8333 396.68 76.1C394.48 75.3667 391.48 74.5333 387.68 73.6C382.346 72.3333 378.013 71.0667 374.68 69.8C371.413 68.5333 368.58 66.5667 366.18 63.9C363.846 61.1667 362.68 57.5 362.68 52.9C362.68 49.0333 363.713 45.5333 365.78 42.4C367.913 39.2 371.08 36.6667 375.28 34.8C379.546 32.9333 384.746 32 390.88 32C395.146 32 399.346 32.5333 403.48 33.6C407.613 34.6667 411.18 36.2 414.18 38.2L410.08 48.3C407.013 46.5 403.813 45.1333 400.48 44.2C397.146 43.2667 393.913 42.8 390.78 42.8C385.646 42.8 381.813 43.6667 379.28 45.4C376.813 47.1333 375.58 49.4333 375.58 52.3C375.58 54.3 376.28 55.9333 377.68 57.2C379.146 58.4667 380.98 59.4667 383.18 60.2C385.38 60.9333 388.38 61.7667 392.18 62.7C397.38 63.9 401.646 65.1667 404.98 66.5C408.313 67.7667 411.146 69.7333 413.48 72.4C415.88 75.0667 417.08 78.6667 417.08 83.2C417.08 87.0667 416.013 90.5667 413.88 93.7C411.813 96.8333 408.646 99.3333 404.38 101.2C400.113 103.067 394.913 104 388.78 104ZM492.17 33V103H479.17V73H442.97V103H429.97V33H442.97V61.9H479.17V33H492.17Z" fill="#8100E6"/>
</g>
<g filter="url(#filter1_d)">
<path d="M607.8 104C600.733 104 594.333 102.467 588.6 99.4C582.933 96.2667 578.467 91.9667 575.2 86.5C572 81.0333 570.4 74.8667 570.4 68C570.4 61.1333 572.033 54.9667 575.3 49.5C578.567 44.0333 583.033 39.7667 588.7 36.7C594.433 33.5667 600.833 32 607.9 32C613.633 32 618.867 33 623.6 35C628.333 37 632.333 39.9 635.6 43.7L627.2 51.6C622.133 46.1333 615.9 43.4 608.5 43.4C603.7 43.4 599.4 44.4667 595.6 46.6C591.8 48.6667 588.833 51.5667 586.7 55.3C584.567 59.0333 583.5 63.2667 583.5 68C583.5 72.7333 584.567 76.9667 586.7 80.7C588.833 84.4333 591.8 87.3667 595.6 89.5C599.4 91.5667 603.7 92.6 608.5 92.6C615.9 92.6 622.133 89.8333 627.2 84.3L635.6 92.3C632.333 96.1 628.3 99 623.5 101C618.767 103 613.533 104 607.8 104ZM679.291 104C672.158 104 665.725 102.467 659.991 99.4C654.258 96.2667 649.758 91.9667 646.491 86.5C643.225 80.9667 641.591 74.8 641.591 68C641.591 61.2 643.225 55.0667 646.491 49.6C649.758 44.0667 654.258 39.7667 659.991 36.7C665.725 33.5667 672.158 32 679.291 32C686.425 32 692.858 33.5667 698.591 36.7C704.325 39.7667 708.825 44.0333 712.091 49.5C715.358 54.9667 716.991 61.1333 716.991 68C716.991 74.8667 715.358 81.0333 712.091 86.5C708.825 91.9667 704.325 96.2667 698.591 99.4C692.858 102.467 686.425 104 679.291 104ZM679.291 92.6C683.958 92.6 688.158 91.5667 691.891 89.5C695.625 87.3667 698.558 84.4333 700.691 80.7C702.825 76.9 703.891 72.6667 703.891 68C703.891 63.3333 702.825 59.1333 700.691 55.4C698.558 51.6 695.625 48.6667 691.891 46.6C688.158 44.4667 683.958 43.4 679.291 43.4C674.625 43.4 670.425 44.4667 666.691 46.6C662.958 48.6667 660.025 51.6 657.891 55.4C655.758 59.1333 654.691 63.3333 654.691 68C654.691 72.6667 655.758 76.9 657.891 80.7C660.025 84.4333 662.958 87.3667 666.691 89.5C670.425 91.5667 674.625 92.6 679.291 92.6ZM730.771 33H761.371C768.838 33 775.471 34.4667 781.271 37.4C787.071 40.2667 791.571 44.3667 794.771 49.7C797.971 54.9667 799.571 61.0667 799.571 68C799.571 74.9333 797.971 81.0667 794.771 86.4C791.571 91.6667 787.071 95.7667 781.271 98.7C775.471 101.567 768.838 103 761.371 103H730.771V33ZM760.771 92C765.904 92 770.404 91.0333 774.271 89.1C778.204 87.1 781.204 84.3 783.271 80.7C785.404 77.0333 786.471 72.8 786.471 68C786.471 63.2 785.404 59 783.271 55.4C781.204 51.7333 778.204 48.9333 774.271 47C770.404 45 765.904 44 760.771 44H743.771V92H760.771Z" fill="#8100E6"/>
</g>
<g filter="url(#filter2_d)">
<path d="M814 33H868V45H814V33Z" fill="#8100E6"/>
<path d="M814 61H856V73H814V61Z" fill="#8100E6"/>
<path d="M814 88H868V100H814V88Z" fill="#8100E6"/>
</g>
<g filter="url(#filter3_d)">
<g filter="url(#filter4_d)">
<path d="M544.866 67.5L571.5 103H556.134L529.5 67.5L555.11 33H570.476L544.866 67.5Z" fill="#929292"/>
</g>
<g filter="url(#filter5_d)">
<path d="M530 67.5L504 103H519L545 67.5L520 33H505L530 67.5Z" fill="white"/>
</g>
</g>
<defs>
<filter id="filter0_d" x="85.5" y="32" width="410.67" height="80" filterUnits="userSpaceOnUse" color-interpolation-filters="sRGB">
<feFlood flood-opacity="0" result="BackgroundImageFix"/>
<feColorMatrix in="SourceAlpha" type="matrix" values="0 0 0 0 0 0 0 0 0 0 0 0 0 0 0 0 0 0 127 0" result="hardAlpha"/>
<feOffset dy="4"/>
<feGaussianBlur stdDeviation="2"/>
<feColorMatrix type="matrix" values="0 0 0 0 0 0 0 0 0 0 0 0 0 0 0 0 0 0 0.25 0"/>
<feBlend mode="normal" in2="BackgroundImageFix" result="effect1_dropShadow"/>
<feBlend mode="normal" in="SourceGraphic" in2="effect1_dropShadow" result="shape"/>
</filter>
<filter id="filter1_d" x="566.4" y="32" width="237.171" height="80" filterUnits="userSpaceOnUse" color-interpolation-filters="sRGB">
<feFlood flood-opacity="0" result="BackgroundImageFix"/>
<feColorMatrix in="SourceAlpha" type="matrix" values="0 0 0 0 0 0 0 0 0 0 0 0 0 0 0 0 0 0 127 0" result="hardAlpha"/>
<feOffset dy="4"/>
<feGaussianBlur stdDeviation="2"/>
<feColorMatrix type="matrix" values="0 0 0 0 0 0 0 0 0 0 0 0 0 0 0 0 0 0 0.25 0"/>
<feBlend mode="normal" in2="BackgroundImageFix" result="effect1_dropShadow"/>
<feBlend mode="normal" in="SourceGraphic" in2="effect1_dropShadow" result="shape"/>
</filter>
<filter id="filter2_d" x="810" y="33" width="62" height="75" filterUnits="userSpaceOnUse" color-interpolation-filters="sRGB">
<feFlood flood-opacity="0" result="BackgroundImageFix"/>
<feColorMatrix in="SourceAlpha" type="matrix" values="0 0 0 0 0 0 0 0 0 0 0 0 0 0 0 0 0 0 127 0" result="hardAlpha"/>
<feOffset dy="4"/>
<feGaussianBlur stdDeviation="2"/>
<feColorMatrix type="matrix" values="0 0 0 0 0 0 0 0 0 0 0 0 0 0 0 0 0 0 0.25 0"/>
<feBlend mode="normal" in2="BackgroundImageFix" result="effect1_dropShadow"/>
<feBlend mode="normal" in="SourceGraphic" in2="effect1_dropShadow" result="shape"/>
</filter>
<filter id="filter3_d" x="500" y="33" width="75.5" height="78" filterUnits="userSpaceOnUse" color-interpolation-filters="sRGB">
<feFlood flood-opacity="0" result="BackgroundImageFix"/>
<feColorMatrix in="SourceAlpha" type="matrix" values="0 0 0 0 0 0 0 0 0 0 0 0 0 0 0 0 0 0 127 0" result="hardAlpha"/>
<feOffset dy="4"/>
<feGaussianBlur stdDeviation="2"/>
<feColorMatrix type="matrix" values="0 0 0 0 0 0 0 0 0 0 0 0 0 0 0 0 0 0 0.25 0"/>
<feBlend mode="normal" in2="BackgroundImageFix" result="effect1_dropShadow"/>
<feBlend mode="normal" in="SourceGraphic" in2="effect1_dropShadow" result="shape"/>
</filter>
<filter id="filter4_d" x="525.5" y="33" width="50" height="78" filterUnits="userSpaceOnUse" color-interpolation-filters="sRGB">
<feFlood flood-opacity="0" result="BackgroundImageFix"/>
<feColorMatrix in="SourceAlpha" type="matrix" values="0 0 0 0 0 0 0 0 0 0 0 0 0 0 0 0 0 0 127 0" result="hardAlpha"/>
<feOffset dy="4"/>
<feGaussianBlur stdDeviation="2"/>
<feColorMatrix type="matrix" values="0 0 0 0 0 0 0 0 0 0 0 0 0 0 0 0 0 0 0.25 0"/>
<feBlend mode="normal" in2="BackgroundImageFix" result="effect1_dropShadow"/>
<feBlend mode="normal" in="SourceGraphic" in2="effect1_dropShadow" result="shape"/>
</filter>
<filter id="filter5_d" x="500" y="33" width="49" height="78" filterUnits="userSpaceOnUse" color-interpolation-filters="sRGB">
<feFlood flood-opacity="0" result="BackgroundImageFix"/>
<feColorMatrix in="SourceAlpha" type="matrix" values="0 0 0 0 0 0 0 0 0 0 0 0 0 0 0 0 0 0 127 0" result="hardAlpha"/>
<feOffset dy="4"/>
<feGaussianBlur stdDeviation="2"/>
<feColorMatrix type="matrix" values="0 0 0 0 0 0 0 0 0 0 0 0 0 0 0 0 0 0 0.25 0"/>
<feBlend mode="normal" in2="BackgroundImageFix" result="effect1_dropShadow"/>
<feBlend mode="normal" in="SourceGraphic" in2="effect1_dropShadow" result="shape"/>
</filter>
</defs>
</svg>
